<?xml version="1.0" encoding="UTF-8"?>
<svg xmlns="http://www.w3.org/2000/svg" xmlns:xlink="http://www.w3.org/1999/xlink" width="57px" height="38px" viewBox="0 0 57 38" version="1.1">
<g id="surface1">
<rect x="0" y="0" width="57" height="38" style="fill:rgb(0%,20%,60%);fill-opacity:1;stroke:none;"/>
<path style=" stroke:none;fill-rule:nonzero;fill:rgb(100%,80%,0%);fill-opacity:1;" d="M 28.5 4.222656 L 27.847656 6.230469 L 28.851562 6.554688 Z M 28.5 4.222656 "/>
<path style=" stroke:none;fill-rule:nonzero;fill:rgb(100%,80%,0%);fill-opacity:1;" d="M 28.5 4.222656 L 29.152344 6.230469 L 28.148438 6.554688 Z M 28.5 4.222656 "/>
<path style=" stroke:none;fill-rule:nonzero;fill:rgb(100%,80%,0%);fill-opacity:1;" d="M 30.507812 5.679688 L 28.398438 5.679688 L 28.398438 6.738281 Z M 30.507812 5.679688 "/>
<path style=" stroke:none;fill-rule:nonzero;fill:rgb(100%,80%,0%);fill-opacity:1;" d="M 30.507812 5.679688 L 28.800781 6.921875 L 28.179688 6.066406 Z M 30.507812 5.679688 "/>
<path style=" stroke:none;fill-rule:nonzero;fill:rgb(100%,80%,0%);fill-opacity:1;" d="M 29.742188 8.042969 L 29.089844 6.035156 L 28.085938 6.359375 Z M 29.742188 8.042969 "/>
<path style=" stroke:none;fill-rule:nonzero;fill:rgb(100%,80%,0%);fill-opacity:1;" d="M 29.742188 8.042969 L 28.03125 6.800781 L 28.652344 5.945312 Z M 29.742188 8.042969 "/>
<path style=" stroke:none;fill-rule:nonzero;fill:rgb(100%,80%,0%);fill-opacity:1;" d="M 26.492188 5.679688 L 28.601562 5.679688 L 28.601562 6.738281 Z M 26.492188 5.679688 "/>
<path style=" stroke:none;fill-rule:nonzero;fill:rgb(100%,80%,0%);fill-opacity:1;" d="M 26.492188 5.679688 L 28.199219 6.921875 L 28.820312 6.066406 Z M 26.492188 5.679688 "/>
<path style=" stroke:none;fill-rule:nonzero;fill:rgb(100%,80%,0%);fill-opacity:1;" d="M 27.257812 8.042969 L 27.910156 6.035156 L 28.914062 6.359375 Z M 27.257812 8.042969 "/>
<path style=" stroke:none;fill-rule:nonzero;fill:rgb(100%,80%,0%);fill-opacity:1;" d="M 27.257812 8.042969 L 28.96875 6.800781 L 28.347656 5.945312 Z M 27.257812 8.042969 "/>
<path style=" stroke:none;fill-rule:nonzero;fill:rgb(100%,80%,0%);fill-opacity:1;" d="M 28.5 29.554688 L 27.847656 31.5625 L 28.851562 31.890625 Z M 28.5 29.554688 "/>
<path style=" stroke:none;fill-rule:nonzero;fill:rgb(100%,80%,0%);fill-opacity:1;" d="M 28.5 29.554688 L 29.152344 31.5625 L 28.148438 31.890625 Z M 28.5 29.554688 "/>
<path style=" stroke:none;fill-rule:nonzero;fill:rgb(100%,80%,0%);fill-opacity:1;" d="M 30.507812 31.015625 L 28.398438 31.015625 L 28.398438 32.070312 Z M 30.507812 31.015625 "/>
<path style=" stroke:none;fill-rule:nonzero;fill:rgb(100%,80%,0%);fill-opacity:1;" d="M 30.507812 31.015625 L 28.800781 32.253906 L 28.179688 31.402344 Z M 30.507812 31.015625 "/>
<path style=" stroke:none;fill-rule:nonzero;fill:rgb(100%,80%,0%);fill-opacity:1;" d="M 29.742188 33.375 L 29.089844 31.367188 L 28.085938 31.691406 Z M 29.742188 33.375 "/>
<path style=" stroke:none;fill-rule:nonzero;fill:rgb(100%,80%,0%);fill-opacity:1;" d="M 29.742188 33.375 L 28.03125 32.132812 L 28.652344 31.28125 Z M 29.742188 33.375 "/>
<path style=" stroke:none;fill-rule:nonzero;fill:rgb(100%,80%,0%);fill-opacity:1;" d="M 26.492188 31.015625 L 28.601562 31.015625 L 28.601562 32.070312 Z M 26.492188 31.015625 "/>
<path style=" stroke:none;fill-rule:nonzero;fill:rgb(100%,80%,0%);fill-opacity:1;" d="M 26.492188 31.015625 L 28.199219 32.253906 L 28.820312 31.402344 Z M 26.492188 31.015625 "/>
<path style=" stroke:none;fill-rule:nonzero;fill:rgb(100%,80%,0%);fill-opacity:1;" d="M 27.257812 33.375 L 27.910156 31.367188 L 28.914062 31.691406 Z M 27.257812 33.375 "/>
<path style=" stroke:none;fill-rule:nonzero;fill:rgb(100%,80%,0%);fill-opacity:1;" d="M 27.257812 33.375 L 28.96875 32.132812 L 28.347656 31.28125 Z M 27.257812 33.375 "/>
<path style=" stroke:none;fill-rule:nonzero;fill:rgb(100%,80%,0%);fill-opacity:1;" d="M 15.832031 16.890625 L 15.179688 18.898438 L 16.183594 19.222656 Z M 15.832031 16.890625 "/>
<path style=" stroke:none;fill-rule:nonzero;fill:rgb(100%,80%,0%);fill-opacity:1;" d="M 15.832031 16.890625 L 16.484375 18.898438 L 15.480469 19.222656 Z M 15.832031 16.890625 "/>
<path style=" stroke:none;fill-rule:nonzero;fill:rgb(100%,80%,0%);fill-opacity:1;" d="M 17.839844 18.347656 L 15.730469 18.347656 L 15.730469 19.402344 Z M 17.839844 18.347656 "/>
<path style=" stroke:none;fill-rule:nonzero;fill:rgb(100%,80%,0%);fill-opacity:1;" d="M 17.839844 18.347656 L 16.132812 19.589844 L 15.511719 18.734375 Z M 17.839844 18.347656 "/>
<path style=" stroke:none;fill-rule:nonzero;fill:rgb(100%,80%,0%);fill-opacity:1;" d="M 17.074219 20.707031 L 16.421875 18.699219 L 15.417969 19.027344 Z M 17.074219 20.707031 "/>
<path style=" stroke:none;fill-rule:nonzero;fill:rgb(100%,80%,0%);fill-opacity:1;" d="M 17.074219 20.707031 L 15.367188 19.46875 L 15.988281 18.613281 Z M 17.074219 20.707031 "/>
<path style=" stroke:none;fill-rule:nonzero;fill:rgb(100%,80%,0%);fill-opacity:1;" d="M 13.824219 18.347656 L 15.9375 18.347656 L 15.9375 19.402344 Z M 13.824219 18.347656 "/>
<path style=" stroke:none;fill-rule:nonzero;fill:rgb(100%,80%,0%);fill-opacity:1;" d="M 13.824219 18.347656 L 15.535156 19.589844 L 16.152344 18.734375 Z M 13.824219 18.347656 "/>
<path style=" stroke:none;fill-rule:nonzero;fill:rgb(100%,80%,0%);fill-opacity:1;" d="M 14.59375 20.707031 L 15.246094 18.699219 L 16.25 19.027344 Z M 14.59375 20.707031 "/>
<path style=" stroke:none;fill-rule:nonzero;fill:rgb(100%,80%,0%);fill-opacity:1;" d="M 14.59375 20.707031 L 16.300781 19.46875 L 15.679688 18.613281 Z M 14.59375 20.707031 "/>
<path style=" stroke:none;fill-rule:nonzero;fill:rgb(100%,80%,0%);fill-opacity:1;" d="M 20.925781 9.742188 L 22.632812 8.5 L 22.011719 7.644531 Z M 20.925781 9.742188 "/>
<path style=" stroke:none;fill-rule:nonzero;fill:rgb(100%,80%,0%);fill-opacity:1;" d="M 20.925781 9.742188 L 21.578125 7.734375 L 22.582031 8.058594 Z M 20.925781 9.742188 "/>
<path style=" stroke:none;fill-rule:nonzero;fill:rgb(100%,80%,0%);fill-opacity:1;" d="M 20.160156 7.378906 L 21.867188 8.621094 L 22.488281 7.769531 Z M 20.160156 7.378906 "/>
<path style=" stroke:none;fill-rule:nonzero;fill:rgb(100%,80%,0%);fill-opacity:1;" d="M 20.160156 7.378906 L 22.269531 7.378906 L 22.269531 8.4375 Z M 20.160156 7.378906 "/>
<path style=" stroke:none;fill-rule:nonzero;fill:rgb(100%,80%,0%);fill-opacity:1;" d="M 22.167969 5.921875 L 21.515625 7.929688 L 22.519531 8.257812 Z M 22.167969 5.921875 "/>
<path style=" stroke:none;fill-rule:nonzero;fill:rgb(100%,80%,0%);fill-opacity:1;" d="M 22.167969 5.921875 L 22.820312 7.929688 L 21.816406 8.257812 Z M 22.167969 5.921875 "/>
<path style=" stroke:none;fill-rule:nonzero;fill:rgb(100%,80%,0%);fill-opacity:1;" d="M 23.40625 9.742188 L 21.699219 8.5 L 22.320312 7.644531 Z M 23.40625 9.742188 "/>
<path style=" stroke:none;fill-rule:nonzero;fill:rgb(100%,80%,0%);fill-opacity:1;" d="M 23.40625 9.742188 L 22.753906 7.734375 L 21.75 8.058594 Z M 23.40625 9.742188 "/>
<path style=" stroke:none;fill-rule:nonzero;fill:rgb(100%,80%,0%);fill-opacity:1;" d="M 24.175781 7.378906 L 22.464844 8.621094 L 21.847656 7.769531 Z M 24.175781 7.378906 "/>
<path style=" stroke:none;fill-rule:nonzero;fill:rgb(100%,80%,0%);fill-opacity:1;" d="M 24.175781 7.378906 L 22.0625 7.378906 L 22.0625 8.4375 Z M 24.175781 7.378906 "/>
<path style=" stroke:none;fill-rule:nonzero;fill:rgb(100%,80%,0%);fill-opacity:1;" d="M 18.773438 14.375 L 18.121094 12.367188 L 17.117188 12.691406 Z M 18.773438 14.375 "/>
<path style=" stroke:none;fill-rule:nonzero;fill:rgb(100%,80%,0%);fill-opacity:1;" d="M 18.773438 14.375 L 17.066406 13.132812 L 17.6875 12.28125 Z M 18.773438 14.375 "/>
<path style=" stroke:none;fill-rule:nonzero;fill:rgb(100%,80%,0%);fill-opacity:1;" d="M 16.292969 14.375 L 18 13.132812 L 17.378906 12.28125 Z M 16.292969 14.375 "/>
<path style=" stroke:none;fill-rule:nonzero;fill:rgb(100%,80%,0%);fill-opacity:1;" d="M 16.292969 14.375 L 16.945312 12.367188 L 17.949219 12.691406 Z M 16.292969 14.375 "/>
<path style=" stroke:none;fill-rule:nonzero;fill:rgb(100%,80%,0%);fill-opacity:1;" d="M 15.523438 12.015625 L 17.234375 13.253906 L 17.855469 12.402344 Z M 15.523438 12.015625 "/>
<path style=" stroke:none;fill-rule:nonzero;fill:rgb(100%,80%,0%);fill-opacity:1;" d="M 15.523438 12.015625 L 17.636719 12.015625 L 17.636719 13.070312 Z M 15.523438 12.015625 "/>
<path style=" stroke:none;fill-rule:nonzero;fill:rgb(100%,80%,0%);fill-opacity:1;" d="M 19.542969 12.015625 L 17.832031 13.253906 L 17.210938 12.402344 Z M 19.542969 12.015625 "/>
<path style=" stroke:none;fill-rule:nonzero;fill:rgb(100%,80%,0%);fill-opacity:1;" d="M 19.542969 12.015625 L 17.429688 12.015625 L 17.429688 13.070312 Z M 19.542969 12.015625 "/>
<path style=" stroke:none;fill-rule:nonzero;fill:rgb(100%,80%,0%);fill-opacity:1;" d="M 17.53125 10.554688 L 18.1875 12.5625 L 17.183594 12.890625 Z M 17.53125 10.554688 "/>
<path style=" stroke:none;fill-rule:nonzero;fill:rgb(100%,80%,0%);fill-opacity:1;" d="M 17.535156 10.554688 L 16.878906 12.5625 L 17.882812 12.890625 Z M 17.535156 10.554688 "/>
<path style=" stroke:none;fill-rule:nonzero;fill:rgb(100%,80%,0%);fill-opacity:1;" d="M 19.539062 24.679688 L 17.425781 24.679688 L 17.425781 25.738281 Z M 19.539062 24.679688 "/>
<path style=" stroke:none;fill-rule:nonzero;fill:rgb(100%,80%,0%);fill-opacity:1;" d="M 19.539062 24.679688 L 17.828125 25.921875 L 17.210938 25.070312 Z M 19.539062 24.679688 "/>
<path style=" stroke:none;fill-rule:nonzero;fill:rgb(100%,80%,0%);fill-opacity:1;" d="M 18.769531 27.042969 L 18.117188 25.035156 L 17.113281 25.359375 Z M 18.769531 27.042969 "/>
<path style=" stroke:none;fill-rule:nonzero;fill:rgb(100%,80%,0%);fill-opacity:1;" d="M 18.769531 27.042969 L 17.0625 25.800781 L 17.683594 24.945312 Z M 18.769531 27.042969 "/>
<path style=" stroke:none;fill-rule:nonzero;fill:rgb(100%,80%,0%);fill-opacity:1;" d="M 16.289062 27.042969 L 17.996094 25.800781 L 17.375 24.945312 Z M 16.289062 27.042969 "/>
<path style=" stroke:none;fill-rule:nonzero;fill:rgb(100%,80%,0%);fill-opacity:1;" d="M 16.289062 27.042969 L 16.941406 25.035156 L 17.945312 25.359375 Z M 16.289062 27.042969 "/>
<path style=" stroke:none;fill-rule:nonzero;fill:rgb(100%,80%,0%);fill-opacity:1;" d="M 17.53125 23.222656 L 18.183594 25.230469 L 17.179688 25.558594 Z M 17.53125 23.222656 "/>
<path style=" stroke:none;fill-rule:nonzero;fill:rgb(100%,80%,0%);fill-opacity:1;" d="M 17.53125 23.222656 L 16.878906 25.230469 L 17.882812 25.558594 Z M 17.53125 23.222656 "/>
<path style=" stroke:none;fill-rule:nonzero;fill:rgb(100%,80%,0%);fill-opacity:1;" d="M 15.523438 24.679688 L 17.632812 24.679688 L 17.632812 25.738281 Z M 15.523438 24.679688 "/>
<path style=" stroke:none;fill-rule:nonzero;fill:rgb(100%,80%,0%);fill-opacity:1;" d="M 15.523438 24.679688 L 17.230469 25.921875 L 17.851562 25.070312 Z M 15.523438 24.679688 "/>
<path style=" stroke:none;fill-rule:nonzero;fill:rgb(100%,80%,0%);fill-opacity:1;" d="M 24.175781 29.316406 L 22.0625 29.316406 L 22.0625 30.375 Z M 24.175781 29.316406 "/>
<path style=" stroke:none;fill-rule:nonzero;fill:rgb(100%,80%,0%);fill-opacity:1;" d="M 24.175781 29.316406 L 22.46875 30.558594 L 21.847656 29.703125 Z M 24.175781 29.316406 "/>
<path style=" stroke:none;fill-rule:nonzero;fill:rgb(100%,80%,0%);fill-opacity:1;" d="M 23.410156 31.679688 L 22.757812 29.671875 L 21.753906 29.996094 Z M 23.410156 31.679688 "/>
<path style=" stroke:none;fill-rule:nonzero;fill:rgb(100%,80%,0%);fill-opacity:1;" d="M 23.410156 31.679688 L 21.699219 30.4375 L 22.320312 29.582031 Z M 23.410156 31.679688 "/>
<path style=" stroke:none;fill-rule:nonzero;fill:rgb(100%,80%,0%);fill-opacity:1;" d="M 20.925781 31.679688 L 22.632812 30.4375 L 22.015625 29.582031 Z M 20.925781 31.679688 "/>
<path style=" stroke:none;fill-rule:nonzero;fill:rgb(100%,80%,0%);fill-opacity:1;" d="M 20.925781 31.679688 L 21.578125 29.671875 L 22.582031 29.996094 Z M 20.925781 31.679688 "/>
<path style=" stroke:none;fill-rule:nonzero;fill:rgb(100%,80%,0%);fill-opacity:1;" d="M 22.167969 27.859375 L 22.820312 29.867188 L 21.816406 30.191406 Z M 22.167969 27.859375 "/>
<path style=" stroke:none;fill-rule:nonzero;fill:rgb(100%,80%,0%);fill-opacity:1;" d="M 22.167969 27.859375 L 21.515625 29.867188 L 22.519531 30.191406 Z M 22.167969 27.859375 "/>
<path style=" stroke:none;fill-rule:nonzero;fill:rgb(100%,80%,0%);fill-opacity:1;" d="M 20.160156 29.316406 L 22.269531 29.316406 L 22.269531 30.375 Z M 20.160156 29.316406 "/>
<path style=" stroke:none;fill-rule:nonzero;fill:rgb(100%,80%,0%);fill-opacity:1;" d="M 20.160156 29.316406 L 21.867188 30.558594 L 22.488281 29.703125 Z M 20.160156 29.316406 "/>
<path style=" stroke:none;fill-rule:nonzero;fill:rgb(100%,80%,0%);fill-opacity:1;" d="M 41.167969 16.890625 L 41.820312 18.898438 L 40.816406 19.222656 Z M 41.167969 16.890625 "/>
<path style=" stroke:none;fill-rule:nonzero;fill:rgb(100%,80%,0%);fill-opacity:1;" d="M 41.167969 16.890625 L 40.515625 18.898438 L 41.519531 19.222656 Z M 41.167969 16.890625 "/>
<path style=" stroke:none;fill-rule:nonzero;fill:rgb(100%,80%,0%);fill-opacity:1;" d="M 39.160156 18.347656 L 41.269531 18.347656 L 41.269531 19.402344 Z M 39.160156 18.347656 "/>
<path style=" stroke:none;fill-rule:nonzero;fill:rgb(100%,80%,0%);fill-opacity:1;" d="M 39.160156 18.347656 L 40.867188 19.589844 L 41.488281 18.734375 Z M 39.160156 18.347656 "/>
<path style=" stroke:none;fill-rule:nonzero;fill:rgb(100%,80%,0%);fill-opacity:1;" d="M 39.925781 20.707031 L 40.578125 18.699219 L 41.582031 19.027344 Z M 39.925781 20.707031 "/>
<path style=" stroke:none;fill-rule:nonzero;fill:rgb(100%,80%,0%);fill-opacity:1;" d="M 39.925781 20.707031 L 41.632812 19.46875 L 41.011719 18.613281 Z M 39.925781 20.707031 "/>
<path style=" stroke:none;fill-rule:nonzero;fill:rgb(100%,80%,0%);fill-opacity:1;" d="M 43.175781 18.347656 L 41.0625 18.347656 L 41.0625 19.402344 Z M 43.175781 18.347656 "/>
<path style=" stroke:none;fill-rule:nonzero;fill:rgb(100%,80%,0%);fill-opacity:1;" d="M 43.175781 18.347656 L 41.464844 19.589844 L 40.847656 18.734375 Z M 43.175781 18.347656 "/>
<path style=" stroke:none;fill-rule:nonzero;fill:rgb(100%,80%,0%);fill-opacity:1;" d="M 42.40625 20.707031 L 41.753906 18.699219 L 40.75 19.027344 Z M 42.40625 20.707031 "/>
<path style=" stroke:none;fill-rule:nonzero;fill:rgb(100%,80%,0%);fill-opacity:1;" d="M 42.40625 20.707031 L 40.699219 19.46875 L 41.320312 18.613281 Z M 42.40625 20.707031 "/>
<path style=" stroke:none;fill-rule:nonzero;fill:rgb(100%,80%,0%);fill-opacity:1;" d="M 36.074219 9.742188 L 34.367188 8.5 L 34.988281 7.644531 Z M 36.074219 9.742188 "/>
<path style=" stroke:none;fill-rule:nonzero;fill:rgb(100%,80%,0%);fill-opacity:1;" d="M 36.074219 9.742188 L 35.421875 7.734375 L 34.417969 8.058594 Z M 36.074219 9.742188 "/>
<path style=" stroke:none;fill-rule:nonzero;fill:rgb(100%,80%,0%);fill-opacity:1;" d="M 36.839844 7.378906 L 35.132812 8.621094 L 34.511719 7.769531 Z M 36.839844 7.378906 "/>
<path style=" stroke:none;fill-rule:nonzero;fill:rgb(100%,80%,0%);fill-opacity:1;" d="M 36.839844 7.378906 L 34.730469 7.378906 L 34.730469 8.4375 Z M 36.839844 7.378906 "/>
<path style=" stroke:none;fill-rule:nonzero;fill:rgb(100%,80%,0%);fill-opacity:1;" d="M 34.832031 5.921875 L 35.484375 7.929688 L 34.480469 8.257812 Z M 34.832031 5.921875 "/>
<path style=" stroke:none;fill-rule:nonzero;fill:rgb(100%,80%,0%);fill-opacity:1;" d="M 34.832031 5.921875 L 34.179688 7.929688 L 35.183594 8.257812 Z M 34.832031 5.921875 "/>
<path style=" stroke:none;fill-rule:nonzero;fill:rgb(100%,80%,0%);fill-opacity:1;" d="M 33.59375 9.742188 L 35.300781 8.5 L 34.679688 7.644531 Z M 33.59375 9.742188 "/>
<path style=" stroke:none;fill-rule:nonzero;fill:rgb(100%,80%,0%);fill-opacity:1;" d="M 33.59375 9.742188 L 34.246094 7.734375 L 35.25 8.058594 Z M 33.59375 9.742188 "/>
<path style=" stroke:none;fill-rule:nonzero;fill:rgb(100%,80%,0%);fill-opacity:1;" d="M 32.824219 7.378906 L 34.535156 8.621094 L 35.152344 7.769531 Z M 32.824219 7.378906 "/>
<path style=" stroke:none;fill-rule:nonzero;fill:rgb(100%,80%,0%);fill-opacity:1;" d="M 32.824219 7.378906 L 34.9375 7.378906 L 34.9375 8.4375 Z M 32.824219 7.378906 "/>
<path style=" stroke:none;fill-rule:nonzero;fill:rgb(100%,80%,0%);fill-opacity:1;" d="M 38.226562 14.375 L 38.878906 12.367188 L 39.882812 12.691406 Z M 38.226562 14.375 "/>
<path style=" stroke:none;fill-rule:nonzero;fill:rgb(100%,80%,0%);fill-opacity:1;" d="M 38.226562 14.375 L 39.933594 13.132812 L 39.3125 12.28125 Z M 38.226562 14.375 "/>
<path style=" stroke:none;fill-rule:nonzero;fill:rgb(100%,80%,0%);fill-opacity:1;" d="M 40.707031 14.375 L 39 13.132812 L 39.621094 12.28125 Z M 40.707031 14.375 "/>
<path style=" stroke:none;fill-rule:nonzero;fill:rgb(100%,80%,0%);fill-opacity:1;" d="M 40.707031 14.375 L 40.054688 12.367188 L 39.050781 12.691406 Z M 40.707031 14.375 "/>
<path style=" stroke:none;fill-rule:nonzero;fill:rgb(100%,80%,0%);fill-opacity:1;" d="M 41.476562 12.015625 L 39.765625 13.253906 L 39.144531 12.402344 Z M 41.476562 12.015625 "/>
<path style=" stroke:none;fill-rule:nonzero;fill:rgb(100%,80%,0%);fill-opacity:1;" d="M 41.476562 12.015625 L 39.363281 12.015625 L 39.363281 13.070312 Z M 41.476562 12.015625 "/>
<path style=" stroke:none;fill-rule:nonzero;fill:rgb(100%,80%,0%);fill-opacity:1;" d="M 37.457031 12.015625 L 39.167969 13.253906 L 39.789062 12.402344 Z M 37.457031 12.015625 "/>
<path style=" stroke:none;fill-rule:nonzero;fill:rgb(100%,80%,0%);fill-opacity:1;" d="M 37.457031 12.015625 L 39.570312 12.015625 L 39.570312 13.070312 Z M 37.457031 12.015625 "/>
<path style=" stroke:none;fill-rule:nonzero;fill:rgb(100%,80%,0%);fill-opacity:1;" d="M 39.46875 10.554688 L 38.8125 12.5625 L 39.816406 12.890625 Z M 39.46875 10.554688 "/>
<path style=" stroke:none;fill-rule:nonzero;fill:rgb(100%,80%,0%);fill-opacity:1;" d="M 39.464844 10.554688 L 40.121094 12.5625 L 39.117188 12.890625 Z M 39.464844 10.554688 "/>
<path style=" stroke:none;fill-rule:nonzero;fill:rgb(100%,80%,0%);fill-opacity:1;" d="M 37.460938 24.679688 L 39.574219 24.679688 L 39.574219 25.738281 Z M 37.460938 24.679688 "/>
<path style=" stroke:none;fill-rule:nonzero;fill:rgb(100%,80%,0%);fill-opacity:1;" d="M 37.460938 24.679688 L 39.171875 25.921875 L 39.789062 25.070312 Z M 37.460938 24.679688 "/>
<path style=" stroke:none;fill-rule:nonzero;fill:rgb(100%,80%,0%);fill-opacity:1;" d="M 38.230469 27.042969 L 38.882812 25.035156 L 39.886719 25.359375 Z M 38.230469 27.042969 "/>
<path style=" stroke:none;fill-rule:nonzero;fill:rgb(100%,80%,0%);fill-opacity:1;" d="M 38.230469 27.042969 L 39.9375 25.800781 L 39.316406 24.945312 Z M 38.230469 27.042969 "/>
<path style=" stroke:none;fill-rule:nonzero;fill:rgb(100%,80%,0%);fill-opacity:1;" d="M 40.710938 27.042969 L 39.003906 25.800781 L 39.625 24.945312 Z M 40.710938 27.042969 "/>
<path style=" stroke:none;fill-rule:nonzero;fill:rgb(100%,80%,0%);fill-opacity:1;" d="M 40.710938 27.042969 L 40.058594 25.035156 L 39.054688 25.359375 Z M 40.710938 27.042969 "/>
<path style=" stroke:none;fill-rule:nonzero;fill:rgb(100%,80%,0%);fill-opacity:1;" d="M 39.46875 23.222656 L 38.816406 25.230469 L 39.820312 25.558594 Z M 39.46875 23.222656 "/>
<path style=" stroke:none;fill-rule:nonzero;fill:rgb(100%,80%,0%);fill-opacity:1;" d="M 39.46875 23.222656 L 40.121094 25.230469 L 39.117188 25.558594 Z M 39.46875 23.222656 "/>
<path style=" stroke:none;fill-rule:nonzero;fill:rgb(100%,80%,0%);fill-opacity:1;" d="M 41.476562 24.679688 L 39.367188 24.679688 L 39.367188 25.738281 Z M 41.476562 24.679688 "/>
<path style=" stroke:none;fill-rule:nonzero;fill:rgb(100%,80%,0%);fill-opacity:1;" d="M 41.476562 24.679688 L 39.769531 25.921875 L 39.148438 25.070312 Z M 41.476562 24.679688 "/>
<path style=" stroke:none;fill-rule:nonzero;fill:rgb(100%,80%,0%);fill-opacity:1;" d="M 32.824219 29.316406 L 34.9375 29.316406 L 34.9375 30.375 Z M 32.824219 29.316406 "/>
<path style=" stroke:none;fill-rule:nonzero;fill:rgb(100%,80%,0%);fill-opacity:1;" d="M 32.824219 29.316406 L 34.53125 30.558594 L 35.152344 29.703125 Z M 32.824219 29.316406 "/>
<path style=" stroke:none;fill-rule:nonzero;fill:rgb(100%,80%,0%);fill-opacity:1;" d="M 33.589844 31.679688 L 34.242188 29.671875 L 35.246094 29.996094 Z M 33.589844 31.679688 "/>
<path style=" stroke:none;fill-rule:nonzero;fill:rgb(100%,80%,0%);fill-opacity:1;" d="M 33.589844 31.679688 L 35.300781 30.4375 L 34.679688 29.582031 Z M 33.589844 31.679688 "/>
<path style=" stroke:none;fill-rule:nonzero;fill:rgb(100%,80%,0%);fill-opacity:1;" d="M 36.074219 31.679688 L 34.367188 30.4375 L 34.984375 29.582031 Z M 36.074219 31.679688 "/>
<path style=" stroke:none;fill-rule:nonzero;fill:rgb(100%,80%,0%);fill-opacity:1;" d="M 36.074219 31.679688 L 35.421875 29.671875 L 34.417969 29.996094 Z M 36.074219 31.679688 "/>
<path style=" stroke:none;fill-rule:nonzero;fill:rgb(100%,80%,0%);fill-opacity:1;" d="M 34.832031 27.859375 L 34.179688 29.867188 L 35.183594 30.191406 Z M 34.832031 27.859375 "/>
<path style=" stroke:none;fill-rule:nonzero;fill:rgb(100%,80%,0%);fill-opacity:1;" d="M 34.832031 27.859375 L 35.484375 29.867188 L 34.480469 30.191406 Z M 34.832031 27.859375 "/>
<path style=" stroke:none;fill-rule:nonzero;fill:rgb(100%,80%,0%);fill-opacity:1;" d="M 36.839844 29.316406 L 34.730469 29.316406 L 34.730469 30.375 Z M 36.839844 29.316406 "/>
<path style=" stroke:none;fill-rule:nonzero;fill:rgb(100%,80%,0%);fill-opacity:1;" d="M 36.839844 29.316406 L 35.132812 30.558594 L 34.511719 29.703125 Z M 36.839844 29.316406 "/>
</g>
</svg>
